<?xml version="1.0" standalone="no"?>
<!DOCTYPE svg PUBLIC "-//W3C//DTD SVG 20010904//EN"
 "http://www.w3.org/TR/2001/REC-SVG-20010904/DTD/svg10.dtd">
<svg version="1.0" xmlns="http://www.w3.org/2000/svg"
 width="357.000000pt" height="357.000000pt" viewBox="0 0 357.000000 357.000000"
 preserveAspectRatio="xMidYMid meet">
<metadata>
Created by potrace 1.11, written by Peter Selinger 2001-2013
</metadata>
<g transform="translate(0.000000,357.000000) scale(0.100000,-0.100000)"
fill="#000000" stroke="none">
<path d="M1486 3232 c-3 -3 -39 -8 -117 -16 -24 -3 -73 -13 -109 -22 -36 -8
-69 -17 -75 -18 -34 -8 -104 -32 -124 -43 -14 -6 -28 -10 -33 -7 -4 3 -8 1 -8
-4 0 -6 -10 -12 -22 -16 -13 -3 -58 -25 -100 -50 -43 -24 -78 -41 -78 -38 0 4
-4 2 -8 -3 -4 -6 -38 -33 -77 -60 -140 -99 -303 -275 -387 -420 -23 -38 -48
-81 -57 -95 -8 -14 -16 -27 -16 -30 -1 -9 -48 -125 -55 -135 -6 -8 -16 -40
-25 -80 -2 -5 -10 -37 -19 -70 -10 -33 -19 -80 -22 -105 -3 -25 -9 -62 -14
-82 -10 -48 -5 -319 8 -383 6 -27 8 -53 6 -57 -3 -4 0 -16 6 -27 5 -11 11 -33
13 -48 2 -16 7 -34 11 -41 4 -7 4 -12 0 -12 -3 0 -2 -6 4 -12 5 -7 13 -28 17
-46 4 -18 13 -45 20 -59 8 -15 12 -30 9 -35 -3 -4 -2 -8 3 -8 8 0 49 -92 44
-99 -1 -2 2 -7 7 -10 10 -7 43 -67 41 -77 0 -4 4 -10 9 -13 5 -3 21 -25 36
-49 15 -23 62 -85 106 -137 44 -53 80 -97 80 -99 0 -2 -15 -7 -32 -11 -18 -4
-40 -9 -48 -12 -8 -2 -39 -6 -68 -7 -60 -3 -132 25 -140 56 -2 10 -8 18 -12
18 -13 0 -32 78 -34 139 0 33 -3 61 -6 61 -3 0 -25 -32 -50 -71 -25 -38 -50
-75 -55 -82 -6 -7 -19 -31 -29 -54 -11 -24 -24 -43 -29 -43 -6 0 -8 -3 -5 -6
4 -3 -3 -26 -14 -51 -69 -157 -27 -271 112 -300 55 -12 207 -5 284 12 12 3 32
7 46 10 20 3 142 36 185 49 35 11 219 100 305 148 25 14 70 38 100 54 30 16
57 32 60 35 3 3 25 16 50 30 25 13 47 27 50 30 3 3 21 14 40 24 18 10 39 23
46 29 14 13 186 126 215 141 10 5 19 13 19 17 0 5 6 8 14 8 8 0 16 4 18 8 2 5
28 26 58 47 30 22 67 48 81 60 14 11 36 27 49 35 21 15 43 31 86 68 11 9 36
28 54 42 18 14 39 31 46 38 7 6 15 12 19 12 3 0 16 10 29 23 31 29 113 98 140
117 12 8 26 19 31 25 6 6 48 45 95 86 102 89 90 79 181 159 91 81 611 601 701
701 88 98 140 158 170 193 l24 28 58 -56 c32 -31 59 -56 61 -56 2 0 15 83 17
110 0 8 4 36 9 61 4 25 10 66 13 90 3 24 8 53 10 64 2 11 7 51 11 90 4 38 8
72 10 75 2 3 6 26 9 50 3 25 8 64 11 87 l5 41 -32 -8 c-18 -5 -49 -11 -68 -15
-19 -3 -39 -7 -45 -9 -24 -7 -62 -16 -85 -20 -14 -2 -32 -7 -40 -10 -8 -3 -28
-7 -45 -10 -16 -3 -41 -7 -55 -10 -14 -3 -35 -8 -48 -10 -12 -3 -26 -7 -31
-10 -4 -3 -23 -8 -42 -10 -19 -3 -41 -7 -49 -9 -8 -2 -32 -7 -52 -12 -22 -4
-38 -13 -38 -21 0 -8 3 -14 8 -14 10 -1 112 -96 112 -105 0 -12 -62 -76 -341
-355 -282 -282 -447 -439 -628 -598 -14 -13 -48 -44 -76 -69 -82 -73 -118
-105 -179 -158 -32 -27 -70 -61 -85 -75 -15 -14 -49 -43 -75 -65 -26 -22 -56
-47 -66 -55 -10 -8 -37 -31 -60 -50 -23 -19 -52 -44 -64 -55 -12 -11 -41 -36
-65 -55 -24 -19 -48 -40 -55 -45 -23 -21 -134 -111 -166 -135 -18 -14 -41 -32
-50 -40 -43 -35 -59 -48 -106 -86 -28 -21 -63 -48 -78 -59 -15 -11 -40 -30
-54 -43 -15 -12 -35 -25 -44 -28 -10 -3 -18 -10 -18 -15 0 -5 -6 -9 -14 -9
-15 0 -136 148 -136 167 0 7 -4 13 -9 13 -11 0 -94 149 -94 168 0 6 -3 12 -7
12 -6 0 -42 92 -42 107 0 4 -3 13 -8 18 -9 11 -29 81 -35 123 -2 15 -7 38 -10
52 -32 149 -24 386 21 550 8 30 17 62 19 70 15 61 92 233 106 238 5 2 9 9 9
16 0 13 70 117 96 143 8 8 14 18 14 22 0 30 276 271 345 302 11 5 35 18 53 29
17 11 32 16 32 12 0 -4 4 -2 8 4 7 11 146 71 179 77 10 2 29 9 43 14 14 6 45
14 70 18 25 4 54 9 65 12 79 16 247 22 340 12 68 -8 82 -10 155 -23 34 -7 91
-22 120 -33 8 -3 23 -8 33 -10 10 -2 28 -8 40 -15 12 -7 28 -13 36 -14 8 -2
17 -8 21 -14 4 -7 11 -11 16 -11 18 1 44 -11 44 -20 0 -6 4 -8 9 -4 5 3 15 0
23 -7 7 -7 35 -24 62 -38 26 -14 50 -31 53 -37 3 -7 10 -13 15 -13 14 0 142
-105 172 -141 20 -24 26 -26 41 -15 16 11 8 23 -86 117 -151 153 -198 189
-359 277 -106 58 -304 131 -395 146 -31 5 -94 14 -155 22 -55 7 -239 12 -244
6z"/>
<path d="M1923 2850 c-17 -5 -18 -32 -18 -512 0 -505 0 -507 20 -490 55 46
220 194 305 274 l25 23 0 352 c0 307 -2 353 -15 354 -66 4 -303 3 -317 -1z"/>
<path d="M1197 2770 c-34 -27 -44 -73 -23 -105 21 -32 47 -32 80 1 21 22 25
34 23 67 -3 29 -9 43 -23 48 -28 11 -29 11 -57 -11z"/>
<path d="M1380 2646 c-18 -35 -66 -55 -119 -50 -24 2 -48 7 -55 11 -34 22
-174 27 -218 9 -62 -26 -103 -95 -113 -189 l-5 -52 20 43 c27 59 72 102 123
116 70 20 82 16 79 -24 -2 -33 -38 -164 -51 -185 -3 -5 -6 -17 -8 -25 -1 -8
-6 -23 -12 -35 -5 -11 -24 -51 -42 -90 -18 -38 -35 -72 -39 -75 -4 -3 -10 -15
-14 -27 -4 -13 -14 -30 -22 -38 -9 -8 -14 -20 -12 -25 4 -13 95 75 128 124 14
20 28 36 33 36 4 0 7 4 7 9 0 6 13 29 29 53 16 24 32 53 35 66 4 12 12 22 18
22 6 0 9 3 6 6 -4 3 6 33 22 67 33 73 43 99 44 112 1 6 10 9 21 7 80 -11 113
-2 141 37 14 19 13 16 23 62 11 47 -1 68 -19 35z"/>
<path d="M1479 2453 c-4 -56 -2 -113 4 -113 5 0 5 -5 1 -12 -10 -16 -11 -148
-1 -148 5 0 5 -6 1 -12 -10 -16 -11 -138 -2 -138 4 0 4 -10 0 -22 -5 -13 -7
-32 -6 -43 4 -31 6 -276 3 -345 -4 -97 -2 -144 7 -147 5 -2 23 9 40 24 17 16
48 42 68 58 20 17 49 42 63 58 15 15 30 27 33 27 4 0 38 28 74 63 l66 62 -2
345 -3 345 -172 3 c-95 1 -173 -1 -174 -5z"/>
<path d="M1209 2384 c-5 -7 -14 -25 -18 -41 l-8 -28 48 2 c62 1 76 -13 61 -65
-6 -21 -21 -47 -32 -59 -11 -12 -20 -27 -20 -33 0 -9 84 72 122 119 28 33 31
64 11 86 -22 24 -32 27 -101 29 -30 1 -58 -4 -63 -10z"/>
<path d="M1210 2135 c-7 -9 -8 -15 -2 -15 5 0 12 7 16 15 3 8 4 15 2 15 -2 0
-9 -7 -16 -15z"/>
<path d="M2769 1927 c-124 -122 -258 -251 -297 -287 -40 -36 -89 -81 -110
-100 -58 -53 -161 -143 -183 -158 -10 -7 -38 -30 -61 -52 -24 -21 -83 -70
-133 -109 -49 -39 -105 -83 -124 -98 -19 -16 -50 -39 -70 -52 -20 -14 -47 -35
-61 -48 -14 -13 -29 -23 -33 -23 -5 0 -15 -6 -22 -12 -27 -25 -40 -34 -72 -53
-18 -11 -33 -23 -33 -27 0 -4 -7 -8 -15 -8 -8 0 -15 -4 -15 -8 0 -5 -12 -15
-27 -23 -16 -8 -30 -16 -33 -19 -10 -10 -101 -70 -106 -70 -3 0 -10 -5 -17
-10 -18 -17 -117 -79 -167 -107 -25 -14 -70 -40 -101 -59 -31 -19 -59 -34 -62
-34 -4 0 -29 -13 -57 -30 -27 -16 -50 -27 -50 -25 0 3 -9 -3 -19 -12 -19 -15
-19 -17 -3 -29 9 -8 22 -14 28 -14 7 0 38 -12 70 -27 33 -15 64 -28 69 -29 6
-1 46 -14 90 -29 44 -15 89 -29 100 -31 174 -35 331 -45 474 -30 60 6 122 15
146 21 39 9 77 19 118 32 26 8 53 16 60 17 22 4 112 40 135 54 12 8 22 11 22
8 0 -3 18 5 40 19 22 14 40 22 40 18 0 -5 4 -3 8 2 4 6 40 30 80 54 155 93
368 306 446 446 21 38 40 69 46 75 8 8 62 119 59 122 -1 2 4 14 11 28 8 14 15
28 16 33 1 4 3 9 4 12 1 3 3 8 4 13 1 4 10 33 19 64 10 32 18 61 18 65 1 5 5
18 10 31 5 12 13 53 19 90 6 37 13 81 16 97 6 35 6 266 0 310 -14 100 -17 117
-31 175 -2 8 -4 23 -4 33 -1 9 -4 17 -8 17 -5 0 -109 -100 -234 -223z"/>
<path d="M1041 1608 c0 -274 4 -498 9 -498 5 0 15 6 22 13 7 7 36 30 63 52 28
22 52 43 53 48 2 4 7 7 12 7 4 0 29 20 56 44 26 25 51 44 54 42 3 -1 23 16 45
39 l40 42 -1 347 c-1 191 -4 350 -8 353 -3 4 -82 7 -175 7 l-170 1 0 -497z"/>
</g>
</svg>
